<svg width="48" height="48" viewBox="0 0 48 48" fill="none" xmlns="http://www.w3.org/2000/svg">
<g clip-path="url(#clip0)">
<path d="M39.6729 23.1768L32.2728 15.3368C31.818 14.8544 31.0588 14.8324 30.5764 15.2876C30.0948 15.7424 30.0724 16.502 30.5276 16.984L37.1505 24L30.5276 31.0169C30.0724 31.4989 30.0948 32.2581 30.5764 32.7133C30.8084 32.9321 31.1048 33.0405 31.4 33.0405C31.7189 33.0405 32.0372 32.9141 32.2729 32.6648L39.6729 24.8244C40.1092 24.3617 40.1092 23.6392 39.6729 23.1768Z" fill="#0036D5"/>
<path d="M17.4724 31.0165L10.85 24L17.4724 16.9836C17.9272 16.5016 17.9052 15.742 17.4232 15.2872C16.9416 14.8324 16.1816 14.8544 15.7268 15.3364L8.32679 23.1765C7.89042 23.6389 7.89042 24.3617 8.32679 24.8241L15.7272 32.6645C15.9632 32.9145 16.2812 33.0405 16.6 33.0405C16.8952 33.0405 17.1917 32.9317 17.4232 32.7129C17.9057 32.2581 17.9272 31.4985 17.4724 31.0165Z" fill="#0036D5"/>
<path d="M25.9411 11.2936C25.2863 11.1944 24.6735 11.6439 24.5735 12.2988L21.0535 35.3389C20.9535 35.9941 21.4035 36.6065 22.0587 36.7065C22.1203 36.7157 22.181 36.7202 22.2415 36.7202C22.8243 36.7202 23.3355 36.295 23.4263 35.7013L26.9463 12.6612C27.0463 12.006 26.5963 11.3936 25.9411 11.2936Z" fill="#0036D5"/>
</g>
<defs>
<clipPath id="clip0">
<rect width="32" height="32" fill="white" transform="translate(8 8)"/>
</clipPath>
</defs>
</svg>
