<svg width="48" height="48" viewBox="0 0 48 48" fill="none" xmlns="http://www.w3.org/2000/svg">
<path d="M10.2856 34.7892C12.3705 33.5855 14.7354 32.9518 17.1428 32.9518C19.5501 32.9518 21.9151 33.5855 23.9999 34.7892C26.0848 33.5855 28.4497 32.9518 30.8571 32.9518C33.2644 32.9518 35.6294 33.5855 37.7142 34.7892" stroke="#0036D5" stroke-width="2" stroke-linecap="round" stroke-linejoin="round"/>
<path d="M10.2856 14.9802C12.3705 13.7765 14.7354 13.1429 17.1428 13.1429C19.5501 13.1429 21.9151 13.7765 23.9999 14.9802C26.0848 13.7765 28.4497 13.1429 30.8571 13.1429C33.2644 13.1429 35.6294 13.7765 37.7142 14.9802" stroke="#0036D5" stroke-width="2" stroke-linecap="round" stroke-linejoin="round"/>
<path d="M10.2856 14.98V34.7895" stroke="#0036D5" stroke-width="2" stroke-linecap="round" stroke-linejoin="round"/>
<path d="M24 14.98V34.7895" stroke="#0036D5" stroke-width="2" stroke-linecap="round" stroke-linejoin="round"/>
<path d="M37.7144 14.98V34.7895" stroke="#0036D5" stroke-width="2" stroke-linecap="round" stroke-linejoin="round"/>
</svg>
