<svg width="1920" height="591" viewBox="0 0 1920 591" fill="none" xmlns="http://www.w3.org/2000/svg">
<rect width="1920" height="591" fill="#F7F9FB"/>
<rect width="80" height="80" transform="matrix(-1 0 0 1 580 511)" fill="#0036D5"/>
<rect width="80" height="80" transform="matrix(-1 0 0 1 500 401)" fill="white"/>
<rect width="80" height="80" transform="matrix(-1 0 0 1 900 351)" fill="#EC6B00"/>
<rect x="1565" y="511" width="80" height="80" fill="#EC6B00"/>
<rect x="1645" y="511" width="80" height="80" fill="#0036D5"/>
<rect x="1645" y="431" width="80" height="80" fill="#0036D5"/>
<g clip-path="url(#clip0)">
<rect width="186.675" height="6" transform="matrix(-0.707107 -0.707107 -0.707107 0.707107 734 512.999)" fill="#0036D5"/>
<rect width="186.675" height="6" transform="matrix(-0.707107 -0.707107 -0.707107 0.707107 830 512.999)" fill="#0036D5"/>
<rect width="186.675" height="6" transform="matrix(-0.707107 -0.707107 -0.707107 0.707107 718 512.999)" fill="#0036D5"/>
<rect width="186.675" height="6" transform="matrix(-0.707107 -0.707107 -0.707107 0.707107 814 512.999)" fill="#0036D5"/>
<rect width="186.675" height="6" transform="matrix(-0.707107 -0.707107 -0.707107 0.707107 702 512.999)" fill="#0036D5"/>
<rect width="186.675" height="6" transform="matrix(-0.707107 -0.707107 -0.707107 0.707107 798 512.999)" fill="#0036D5"/>
<rect width="186.675" height="6" transform="matrix(-0.707107 -0.707107 -0.707107 0.707107 686 512.999)" fill="#0036D5"/>
<rect width="186.675" height="6" transform="matrix(-0.707107 -0.707107 -0.707107 0.707107 782 512.999)" fill="#0036D5"/>
<rect width="186.675" height="6" transform="matrix(-0.707107 -0.707107 -0.707107 0.707107 670 512.999)" fill="#0036D5"/>
<rect width="186.675" height="6" transform="matrix(-0.707107 -0.707107 -0.707107 0.707107 766 512.999)" fill="#0036D5"/>
<rect width="186.675" height="6" transform="matrix(-0.707107 -0.707107 -0.707107 0.707107 750 512.999)" fill="#0036D5"/>
</g>
<g clip-path="url(#clip1)">
<rect width="186.675" height="6" transform="matrix(-0.707107 -0.707107 -0.707107 0.707107 1639 512.999)" fill="#0036D5"/>
<rect width="186.675" height="6" transform="matrix(-0.707107 -0.707107 -0.707107 0.707107 1735 512.999)" fill="#0036D5"/>
<rect width="186.675" height="6" transform="matrix(-0.707107 -0.707107 -0.707107 0.707107 1623 512.999)" fill="#0036D5"/>
<rect width="186.675" height="6" transform="matrix(-0.707107 -0.707107 -0.707107 0.707107 1719 512.999)" fill="#0036D5"/>
<rect width="186.675" height="6" transform="matrix(-0.707107 -0.707107 -0.707107 0.707107 1607 512.999)" fill="#0036D5"/>
<rect width="186.675" height="6" transform="matrix(-0.707107 -0.707107 -0.707107 0.707107 1703 512.999)" fill="#0036D5"/>
<rect width="186.675" height="6" transform="matrix(-0.707107 -0.707107 -0.707107 0.707107 1591 512.999)" fill="#0036D5"/>
<rect width="186.675" height="6" transform="matrix(-0.707107 -0.707107 -0.707107 0.707107 1687 512.999)" fill="#0036D5"/>
<rect width="186.675" height="6" transform="matrix(-0.707107 -0.707107 -0.707107 0.707107 1575 512.999)" fill="#0036D5"/>
<rect width="186.675" height="6" transform="matrix(-0.707107 -0.707107 -0.707107 0.707107 1671 512.999)" fill="#0036D5"/>
<rect width="186.675" height="6" transform="matrix(-0.707107 -0.707107 -0.707107 0.707107 1655 512.999)" fill="#0036D5"/>
</g>
<g clip-path="url(#clip2)">
<rect x="277" y="284.001" width="186.675" height="6" transform="rotate(135 277 284.001)" fill="#0036D5"/>
<rect x="373" y="284.001" width="186.675" height="6" transform="rotate(135 373 284.001)" fill="#0036D5"/>
<rect x="261" y="284.001" width="186.675" height="6" transform="rotate(135 261 284.001)" fill="#0036D5"/>
<rect x="357" y="284.001" width="186.675" height="6" transform="rotate(135 357 284.001)" fill="#0036D5"/>
<rect x="245" y="284.001" width="186.675" height="6" transform="rotate(135 245 284.001)" fill="#0036D5"/>
<rect x="341" y="284.001" width="186.675" height="6" transform="rotate(135 341 284.001)" fill="#0036D5"/>
<rect x="229" y="284.001" width="186.675" height="6" transform="rotate(135 229 284.001)" fill="#0036D5"/>
<rect x="325" y="284.001" width="186.675" height="6" transform="rotate(135 325 284.001)" fill="#0036D5"/>
<rect x="213" y="284.001" width="186.675" height="6" transform="rotate(135 213 284.001)" fill="#0036D5"/>
<rect x="309" y="284.001" width="186.675" height="6" transform="rotate(135 309 284.001)" fill="#0036D5"/>
<rect x="293" y="284.001" width="186.675" height="6" transform="rotate(135 293 284.001)" fill="#0036D5"/>
<rect width="80" height="80" transform="matrix(-1 0 0 1 283 286)" fill="#0036D5"/>
</g>
<rect width="160" height="80" transform="matrix(-1 0 0 1 740 351)" fill="#0036D5"/>
<rect x="1565" y="111" width="80" height="80" fill="#0036D5"/>
<rect width="160" height="242" transform="matrix(-1 0 0 1 500 349)" fill="#0036D5"/>
<rect width="80" height="80" transform="matrix(-1 0 0 1 420 349)" fill="#F7F9FB"/>
<rect x="1485" y="191" width="80" height="80" fill="#0036D5"/>
<rect x="1645" y="111" width="80" height="80" fill="#0036D5"/>
<defs>
<clipPath id="clip0">
<rect width="80" height="80" fill="white" transform="matrix(-1 0 0 1 740 431)"/>
</clipPath>
<clipPath id="clip1">
<rect width="80" height="80" fill="white" transform="matrix(-1 0 0 1 1645 431)"/>
</clipPath>
<clipPath id="clip2">
<rect width="80" height="80" fill="white" transform="translate(283 366) rotate(-180)"/>
</clipPath>
</defs>
</svg>
