<svg width="48" height="48" viewBox="0 0 48 48" fill="none" xmlns="http://www.w3.org/2000/svg">
<path d="M11.4287 26.4788C12.6936 27.4572 14.5941 28.0288 16.7628 28.0028C18.9315 28.0288 20.8319 27.4572 22.0968 26.4788C23.3618 25.5004 25.2622 24.9289 27.4309 24.9548C29.5996 24.9289 31.5 25.5004 32.765 26.4788" stroke="#0036D5" stroke-width="2" stroke-linecap="round" stroke-linejoin="round"/>
<path d="M19.0487 9.71469C18.5664 10.0609 18.1756 10.5193 17.9101 11.0504C17.6445 11.5814 17.5123 12.1691 17.5247 12.7627C17.5123 13.3563 17.6445 13.944 17.9101 14.4751C18.1756 15.0061 18.5664 15.4646 19.0487 15.8108" stroke="#0036D5" stroke-width="2" stroke-linecap="round" stroke-linejoin="round"/>
<path d="M25.1449 9.71469C24.6626 10.0609 24.2718 10.5193 24.0063 11.0504C23.7407 11.5814 23.6085 12.1691 23.6209 12.7627C23.6085 13.3563 23.7407 13.944 24.0063 14.4751C24.2718 15.0061 24.6626 15.4646 25.1449 15.8108" stroke="#0036D5" stroke-width="2" stroke-linecap="round" stroke-linejoin="round"/>
<path d="M11.4287 20.3833H32.765V28.0034C32.765 30.4286 31.8016 32.7544 30.0867 34.4693C28.3719 36.1841 26.046 37.1475 23.6209 37.1475H20.5728C18.1477 37.1475 15.8218 36.1841 14.107 34.4693C12.3921 32.7544 11.4287 30.4286 11.4287 28.0034V20.3833Z" stroke="#0036D5" stroke-width="2" stroke-linecap="round" stroke-linejoin="round"/>
<path d="M32.3779 30.633C33.0586 30.9454 33.8055 31.0859 34.5531 31.0421C35.3008 30.9982 36.0262 30.7714 36.6656 30.3815C37.305 29.9916 37.8389 29.4506 38.2203 28.8061C38.6016 28.1615 38.8188 27.4332 38.8528 26.685C38.8867 25.9369 38.7363 25.1919 38.4149 24.5155C38.0935 23.839 37.6108 23.2519 37.0093 22.8058C36.4078 22.3596 35.7059 22.068 34.9653 21.9566C34.2247 21.8453 33.4681 21.9175 32.762 22.1671" stroke="#0036D5" stroke-width="2" stroke-linecap="round" stroke-linejoin="round"/>
</svg>
