<svg width="139" height="38" viewBox="0 0 139 38" fill="none" xmlns="http://www.w3.org/2000/svg">
<path fill-rule="evenodd" clip-rule="evenodd" d="M25.0298 19.0001H31.6555V12.6604H25.0298V19.0001Z" fill="#EC6B00"/>
<path fill-rule="evenodd" clip-rule="evenodd" d="M25.0298 25.3398H31.6555V19.0012H25.0298V25.3398Z" fill="#EC6B00"/>
<path fill-rule="evenodd" clip-rule="evenodd" d="M31.6555 31.6785H38.2812V25.3389H31.6555V31.6785Z" fill="#EC6B00"/>
<path fill-rule="evenodd" clip-rule="evenodd" d="M25.0298 12.6605H31.6555V6.3208H25.0298V12.6605Z" fill="#EC6B00"/>
<path fill-rule="evenodd" clip-rule="evenodd" d="M31.6555 19.0001H38.2812V12.6604H31.6555V19.0001Z" fill="#EC6B00"/>
<path fill-rule="evenodd" clip-rule="evenodd" d="M11.7795 19.0001H18.4052V12.6604H11.7795V19.0001Z" fill="white"/>
<path fill-rule="evenodd" clip-rule="evenodd" d="M11.7795 25.3386H18.4052V19H11.7795V25.3386Z" fill="white"/>
<path fill-rule="evenodd" clip-rule="evenodd" d="M5.15405 31.6795H11.7797V25.3398H5.15405V31.6795Z" fill="white"/>
<path fill-rule="evenodd" clip-rule="evenodd" d="M5.15405 12.6614H11.7797V6.32178H5.15405V12.6614Z" fill="white"/>
<path fill-rule="evenodd" clip-rule="evenodd" d="M64.8442 16.9577V23.4229H62.0135V17.1466C62.0135 15.8863 61.3328 15.1527 60.1712 15.1527C58.8761 15.1527 58.1303 15.9918 58.1303 17.5245V23.4229H55.3007V17.1466C55.3007 15.8863 54.62 15.1527 53.4573 15.1527C52.2063 15.1527 51.3943 15.9918 51.3943 17.5245V23.4229H48.5647V12.9265H51.3943V14.0391C52.0529 13.0943 53.0623 12.6331 54.4446 12.6331C55.7828 12.6331 56.7922 13.1366 57.4287 14.1446C58.1524 13.1366 59.2489 12.6331 60.6974 12.6331C63.2204 12.6331 64.8442 14.3336 64.8442 16.9577Z" fill="white"/>
<path fill-rule="evenodd" clip-rule="evenodd" d="M74.1549 12.9265H76.9846V23.423H74.1549V22.2481C73.4754 23.2351 72.3788 23.7175 70.8862 23.7175C69.6793 23.7175 68.692 23.3396 67.9021 22.5627C67.1343 21.7858 66.7394 20.7366 66.7394 19.3717V12.9265H69.5701V19.0361C69.5701 20.4431 70.4251 21.1978 71.7412 21.1978C73.2128 21.1978 74.1549 20.3376 74.1549 18.5948V12.9265Z" fill="white"/>
<path fill-rule="evenodd" clip-rule="evenodd" d="M83.7215 17.0624C85.3233 17.378 87.4072 18.1127 87.3851 20.3589C87.3851 21.4292 86.9681 22.2695 86.1132 22.8564C85.2792 23.4232 84.2257 23.7177 82.9758 23.7177C80.7154 23.7177 79.1797 22.8775 78.3667 21.2192L80.8246 19.8966C81.1544 20.8001 81.8571 21.2614 82.9758 21.2614C83.9841 21.2614 84.4893 20.9669 84.4893 20.3589C84.4893 19.791 83.6112 19.4775 82.4926 19.2041C80.8687 18.8051 78.8278 18.1539 78.8278 15.971C78.8278 14.9429 79.2239 14.1237 80.0137 13.5358C80.8246 12.9267 81.813 12.6333 82.9978 12.6333C84.7739 12.6333 86.3107 13.4313 87.1656 14.8584L84.753 16.1177C84.4011 15.4041 83.8087 15.0474 82.9978 15.0474C82.2741 15.0474 81.7248 15.383 81.7248 15.9076C81.7248 16.4745 82.6018 16.7901 83.7215 17.0624Z" fill="white"/>
<path fill-rule="evenodd" clip-rule="evenodd" d="M95.2176 15.5299H92.7387V19.8968C92.7387 21.0304 93.5937 21.0505 95.2176 20.9671V23.4234C91.3333 23.8435 89.9091 22.7721 89.9091 19.8968V15.5299H87.9995V12.9269H89.9091V10.8063L92.7387 9.98828V12.9269H95.2176V15.5299Z" fill="white"/>
<path fill-rule="evenodd" clip-rule="evenodd" d="M102.882 21.1351C103.76 21.1351 104.483 20.8627 105.055 20.317C105.646 19.7502 105.932 19.0356 105.932 18.1753C105.932 17.314 105.646 16.6004 105.055 16.0547C104.483 15.4878 103.76 15.2155 102.882 15.2155C102.005 15.2155 101.281 15.4878 100.71 16.0547C100.14 16.6004 99.8545 17.314 99.8545 18.1753C99.8545 19.0356 100.14 19.7502 100.71 20.317C101.281 20.8627 102.005 21.1351 102.882 21.1351ZM107.182 14.2497C108.236 15.32 108.762 16.6215 108.762 18.1753C108.762 19.7291 108.236 21.0506 107.182 22.122C106.151 23.1923 104.88 23.718 103.409 23.718C101.872 23.718 100.689 23.2135 99.8546 22.1853V27.6225H97.0227V12.9271H99.8546V14.1652C100.689 13.1371 101.872 12.6326 103.409 12.6326C104.88 12.6326 106.151 13.1783 107.182 14.2497Z" fill="#EC6B00"/>
<path fill-rule="evenodd" clip-rule="evenodd" d="M115.62 21.1351C116.498 21.1351 117.222 20.8627 117.793 20.317C118.384 19.7502 118.67 19.0356 118.67 18.1753C118.67 17.314 118.384 16.6004 117.793 16.0547C117.222 15.4878 116.498 15.2155 115.62 15.2155C114.743 15.2155 114.019 15.4878 113.448 16.0547C112.878 16.6004 112.593 17.314 112.593 18.1753C112.593 19.0356 112.878 19.7502 113.448 20.317C114.019 20.8627 114.743 21.1351 115.62 21.1351ZM118.67 12.9271H121.5V23.4235H118.67V22.1853C117.814 23.2135 116.629 23.718 115.094 23.718C113.623 23.718 112.373 23.1923 111.321 22.122C110.288 21.0506 109.761 19.7291 109.761 18.1753C109.761 16.6215 110.288 15.32 111.321 14.2497C112.373 13.1783 113.623 12.6326 115.094 12.6326C116.629 12.6326 117.814 13.1371 118.67 14.1652V12.9271Z" fill="#EC6B00"/>
<path fill-rule="evenodd" clip-rule="evenodd" d="M130.787 12.9265H133.816L129.822 23.423C128.681 26.4471 126.838 27.7697 124.029 27.622V25.1034C125.544 25.1235 126.378 24.5155 126.903 23.0873L122.406 12.9265H125.5L128.352 19.9808L130.787 12.9265Z" fill="#EC6B00"/>
</svg>
