<svg width="32" height="32" viewBox="0 0 32 32" fill="none" xmlns="http://www.w3.org/2000/svg">
<rect x="0.5" y="0.5" width="30.9999" height="30.9999" rx="3.5" stroke="white"/>
<path d="M9.76275 11.7306C10.8369 11.7306 11.7076 10.8598 11.7076 9.78571C11.7076 8.71158 10.8369 7.84082 9.76275 7.84082C8.68862 7.84082 7.81787 8.71158 7.81787 9.78571C7.81787 10.8598 8.68862 11.7306 9.76275 11.7306Z" fill="white"/>
<path d="M13.544 13.2044V23.9946H16.8942V18.6586C16.8942 17.2507 17.1591 15.8871 18.9049 15.8871C20.6267 15.8871 20.648 17.4969 20.648 18.7475V23.9955H24V18.0782C24 15.1715 23.3742 12.9378 19.9769 12.9378C18.3458 12.9378 17.2524 13.8329 16.8053 14.68H16.76V13.2044H13.544ZM8.08447 13.2044H11.44V23.9946H8.08447V13.2044Z" fill="white"/>
</svg>
