<svg width="72" height="72" viewBox="0 0 72 72" fill="none" xmlns="http://www.w3.org/2000/svg">
<g clip-path="url(#clip0)">
<path d="M26.3097 30.7866V30.8233C26.3097 32.6984 26.9951 34.4157 28.123 35.7183C26.9986 37.021 26.3097 38.7383 26.3097 40.6134C26.3097 44.6865 29.533 48 33.4953 48H46.3993V43.0205H33.4953C32.2066 43.0205 31.1536 41.9417 31.1536 40.6134C31.1536 39.2887 32.2031 38.2062 33.4953 38.2062H43.5329V33.2304H33.4953C32.2066 33.2304 31.1536 32.1516 31.1536 30.8233V30.7866C31.1536 29.4619 32.2031 28.3794 33.4953 28.3794H46.3993V23.4H33.4953C29.533 23.4 26.3097 26.7135 26.3097 30.7866Z" fill="#171717"/>
<path d="M17.698 42.2822C17.698 42.5752 17.5374 42.7511 17.4446 42.828C17.3482 42.9086 17.1483 43.0294 16.8699 42.9708C16.6378 42.9196 16.4522 42.7547 16.3666 42.524L10.7123 27.0922C10.0448 25.2607 8.53488 23.9274 6.67156 23.5245C5.03312 23.1692 3.34827 23.5868 2.04537 24.671C0.746044 25.7515 0 27.3596 0 29.0775V48H4.84393V29.0775C4.84393 28.7844 5.00456 28.6086 5.09737 28.5317C5.19375 28.4511 5.39365 28.3302 5.67207 28.3888C5.9041 28.4401 6.08971 28.6049 6.17538 28.8357L11.826 44.2638C12.4936 46.0953 14.0035 47.4286 15.8668 47.8315C17.5053 48.1868 19.1901 47.7692 20.493 46.685C21.7959 45.6008 22.5384 43.9964 22.5384 42.2785V23.4H17.698V42.2822Z" fill="#171717"/>
<path d="M63.5005 23.4C63.4933 23.4 63.3246 23.4 63.0446 23.4C62.2871 23.4 61.142 23.4 60.022 23.4C58.9019 23.4 57.7568 23.4 56.9993 23.4C56.7157 23.4 56.547 23.4 56.5398 23.4C51.5751 23.4477 47.6873 28.8491 47.6873 35.7C47.6873 42.5032 51.5499 47.9083 56.4752 48C56.486 48 56.6798 48 56.9957 48C57.8752 48 58.9737 48 60.0184 48C61.063 48 62.1615 48 63.041 48C63.3569 48 63.5508 48 63.5615 48C68.4904 47.9083 72.3531 42.5068 72.3531 35.7C72.3531 28.8528 68.4653 23.4477 63.5005 23.4ZM63.4897 43.0205C63.2779 43.0205 61.6123 43.0205 60.022 43.0205C58.4317 43.0205 56.7624 43.0205 56.5542 43.0205C54.6623 42.9692 52.5623 39.9602 52.5623 35.7C52.5623 31.4141 54.6767 28.4051 56.5793 28.3794C56.7337 28.3794 58.3814 28.3794 59.9753 28.3794C60.004 28.3794 60.0363 28.3794 60.0686 28.3794C61.6625 28.3794 63.3138 28.3794 63.4646 28.3794C65.3672 28.4051 67.4817 31.4141 67.4817 35.7C67.4817 39.9602 65.3816 42.9692 63.4897 43.0205Z" fill="#171717"/>
</g>
<defs>
<clipPath id="clip0">
<rect width="72" height="72" fill="white"/>
</clipPath>
</defs>
</svg>
