<svg width="72" height="72" viewBox="0 0 72 72" fill="none" xmlns="http://www.w3.org/2000/svg">
<path d="M40.1816 48.8931L33.8225 60.7832H28.6903C14.763 60.7832 3.42847 49.4574 3.42847 35.5344C3.42847 21.6114 14.7601 10.2857 28.6903 10.2857H33.8225L40.1816 22.1758H28.6903C21.3202 22.1758 15.3248 28.1681 15.3248 35.5344C15.3248 42.9008 21.3202 48.8931 28.6903 48.8931H40.1816Z" fill="#0036D5"/>
<path d="M68.5712 35.5374L55.4865 60.7802H42.5377L52.542 41.4795H28.4833C25.1959 41.4795 22.5352 38.8202 22.5352 35.5344C22.5352 32.2517 25.1959 29.5894 28.4833 29.5894H52.539L42.5407 10.2857H55.4924L68.5712 35.5374Z" fill="white"/>
</svg>
