<svg width="72" height="72" viewBox="0 0 72 72" fill="none" xmlns="http://www.w3.org/2000/svg">
<path fill-rule="evenodd" clip-rule="evenodd" d="M35.9934 47.9524L41.6321 58.4975H46.1798C58.5264 58.4975 68.5714 48.4525 68.5714 36.1059C68.5714 23.7593 58.5264 13.7143 46.1798 13.7143H41.6321L35.9934 24.2577H46.1798C52.7126 24.2577 58.028 29.5731 58.028 36.1059C58.028 42.637 52.7126 47.9524 46.1798 47.9524H35.9934Z" fill="#00E193"/>
<path fill-rule="evenodd" clip-rule="evenodd" d="M36.0065 47.9524L30.3677 58.4975H25.8201C13.4735 58.4975 3.42847 48.4525 3.42847 36.1059C3.42847 23.7593 13.4735 13.7143 25.8201 13.7143H30.3677L36.0065 24.2577H25.8201C19.2873 24.2577 13.9735 29.5731 13.9735 36.1059C13.9735 42.637 19.2873 47.9524 25.8201 47.9524H36.0065Z" fill="white"/>
</svg>
