<svg width="48" height="48" viewBox="0 0 48 48" fill="none" xmlns="http://www.w3.org/2000/svg">
<path d="M27.6152 17.6486L30.3051 14.9574C29.9868 14.6392 29.752 14.2475 29.6213 13.8169C29.4906 13.3863 29.4681 12.9302 29.5558 12.4888C29.6435 12.0475 29.8387 11.6346 30.1241 11.2867C30.4095 10.9388 30.7763 10.6666 31.192 10.4943C31.6077 10.322 32.0594 10.2549 32.5073 10.2989C32.9551 10.3429 33.3851 10.4967 33.7594 10.7466C34.1336 10.9965 34.4404 11.3348 34.6526 11.7316C34.8648 12.1284 34.9759 12.5714 34.9761 13.0214C35.4262 13.0211 35.8694 13.1318 36.2665 13.3437C36.6635 13.5556 37.0022 13.8623 37.2525 14.2364C37.5027 14.6105 37.6568 15.0406 37.7011 15.4885C37.7454 15.9364 37.6785 16.3883 37.5064 16.8042C37.3342 17.2201 37.0622 17.5871 36.7143 17.8727C36.3664 18.1583 35.9535 18.3537 35.512 18.4415C35.0706 18.5293 34.6143 18.5069 34.1836 18.3762C33.7529 18.2456 33.361 18.0107 33.0428 17.6924L30.5527 20.1838" stroke="#0036D5" stroke-width="2" stroke-linecap="round" stroke-linejoin="round"/>
<path d="M17.0578 31.6238C20.7979 35.364 25.1294 37.0965 26.7323 35.4936C28.3352 33.8907 26.6026 29.5593 22.8625 25.8191C19.1223 22.0789 14.7909 20.3464 13.188 21.9493C11.5851 23.5522 13.3176 27.8837 17.0578 31.6238Z" stroke="#0036D5" stroke-width="2" stroke-linecap="round" stroke-linejoin="round"/>
<path d="M19.2417 28.0715L20.6099 29.4397" stroke="#0036D5" stroke-width="2" stroke-linecap="round" stroke-linejoin="round"/>
<path d="M26.7326 35.4937C32.0754 30.1496 33.3751 22.786 29.6345 19.0468C25.8953 15.3062 18.5317 16.606 13.189 21.9487" stroke="#0036D5" stroke-width="2" stroke-linecap="round" stroke-linejoin="round"/>
</svg>
