<svg width="48" height="48" viewBox="0 0 48 48" fill="none" xmlns="http://www.w3.org/2000/svg">
<path d="M27.615 17.6486L30.3048 14.9574C29.9866 14.6392 29.7517 14.2475 29.621 13.8169C29.4903 13.3863 29.4679 12.9302 29.5556 12.4888C29.6433 12.0475 29.8385 11.6346 30.1239 11.2867C30.4093 10.9388 30.776 10.6666 31.1917 10.4943C31.6074 10.322 32.0592 10.2549 32.507 10.2989C32.9548 10.3429 33.3849 10.4967 33.7591 10.7466C34.1333 10.9965 34.4401 11.3348 34.6524 11.7316C34.8646 12.1284 34.9757 12.5714 34.9758 13.0214C35.4259 13.0211 35.8691 13.1318 36.2662 13.3437C36.6633 13.5556 37.002 13.8623 37.2522 14.2364C37.5025 14.6105 37.6566 15.0406 37.7008 15.4885C37.7451 15.9364 37.6783 16.3883 37.5061 16.8042C37.334 17.2201 37.0619 17.5871 36.7141 17.8727C36.3662 18.1583 35.9532 18.3537 35.5118 18.4415C35.0703 18.5293 34.614 18.5069 34.1833 18.3762C33.7526 18.2456 33.3608 18.0107 33.0426 17.6924L30.5525 20.1838" stroke="white" stroke-width="2" stroke-linecap="round" stroke-linejoin="round"/>
<path d="M17.0578 31.6238C20.7979 35.364 25.1294 37.0965 26.7323 35.4936C28.3352 33.8907 26.6026 29.5593 22.8625 25.8191C19.1223 22.0789 14.7909 20.3464 13.188 21.9493C11.5851 23.5522 13.3176 27.8837 17.0578 31.6238Z" stroke="white" stroke-width="2" stroke-linecap="round" stroke-linejoin="round"/>
<path d="M19.2419 28.0715L20.6101 29.4397" stroke="white" stroke-width="2" stroke-linecap="round" stroke-linejoin="round"/>
<path d="M26.7326 35.4937C32.0754 30.1496 33.3751 22.786 29.6345 19.0468C25.8953 15.3062 18.5317 16.606 13.189 21.9487" stroke="white" stroke-width="2" stroke-linecap="round" stroke-linejoin="round"/>
</svg>
