<svg width="256" height="256" viewBox="0 0 256 256" fill="none" xmlns="http://www.w3.org/2000/svg">
<g clip-path="url(#clip0)">
<rect x="262.397" y="236.8" width="597.361" height="19.2" transform="rotate(-135 262.397 236.8)" fill="#3160D5"/>
<rect x="262.397" y="543.999" width="597.361" height="19.2" transform="rotate(-135 262.397 543.999)" fill="#3160D5"/>
<rect x="262.397" y="185.6" width="597.361" height="19.2" transform="rotate(-135 262.397 185.6)" fill="#3160D5"/>
<rect x="262.397" y="492.801" width="597.361" height="19.2" transform="rotate(-135 262.397 492.801)" fill="#3160D5"/>
<rect x="262.397" y="134.401" width="597.361" height="19.2" transform="rotate(-135 262.397 134.401)" fill="#3160D5"/>
<rect x="262.397" y="441.6" width="597.361" height="19.2" transform="rotate(-135 262.397 441.6)" fill="#3160D5"/>
<rect x="262.397" y="83.2009" width="597.361" height="19.2" transform="rotate(-135 262.397 83.2009)" fill="#3160D5"/>
<rect x="262.397" y="390.4" width="597.361" height="19.2" transform="rotate(-135 262.397 390.4)" fill="#3160D5"/>
<rect x="262.397" y="32.0004" width="597.361" height="19.2" transform="rotate(-135 262.397 32.0004)" fill="#3160D5"/>
<rect x="262.397" y="339.199" width="597.361" height="19.2" transform="rotate(-135 262.397 339.199)" fill="#3160D5"/>
<rect x="262.397" y="288.001" width="597.361" height="19.2" transform="rotate(-135 262.397 288.001)" fill="#3160D5"/>
</g>
<defs>
<clipPath id="clip0">
<rect width="256" height="256" fill="white" transform="translate(0 256) rotate(-90)"/>
</clipPath>
</defs>
</svg>
