<svg width="48" height="48" viewBox="0 0 48 48" fill="none" xmlns="http://www.w3.org/2000/svg">
<path d="M28.5711 19.4286L19.4282 28.5715" stroke="#0036D5" stroke-width="2" stroke-linecap="round" stroke-linejoin="round"/>
<path d="M20.9521 24.0001L23.9998 27.0477" stroke="#0036D5" stroke-width="2" stroke-linecap="round" stroke-linejoin="round"/>
<path d="M24 20.9526L27.0476 24.0003" stroke="#0036D5" stroke-width="2" stroke-linecap="round" stroke-linejoin="round"/>
<path d="M17.9047 37.7146C17.9047 35.6939 17.102 33.7559 15.6731 32.3271C14.2443 30.8982 12.3063 30.0955 10.2856 30.0955" stroke="#0036D5" stroke-width="2" stroke-linecap="round" stroke-linejoin="round"/>
<path d="M30.0952 10.2857C19.1542 10.2857 10.2856 19.1543 10.2856 30.0952C10.2856 32.1159 11.0884 34.0539 12.5172 35.4827C13.9461 36.9116 15.884 37.7143 17.9047 37.7143C28.8456 37.7143 37.7142 28.8457 37.7142 17.9048C37.7142 15.8841 36.9115 13.9461 35.4826 12.5173C34.0538 11.0884 32.1159 10.2857 30.0952 10.2857" stroke="#0036D5" stroke-width="2" stroke-linecap="round" stroke-linejoin="round"/>
<path d="M30.0952 10.2858C30.0952 12.3065 30.8979 14.2444 32.3268 15.6733C33.7556 17.1021 35.6936 17.9048 37.7143 17.9048" stroke="#0036D5" stroke-width="2" stroke-linecap="round" stroke-linejoin="round"/>
</svg>
